<?xml version="1.0" standalone="no"?>
<!DOCTYPE svg PUBLIC "-//W3C//DTD SVG 20010904//EN"
 "http://www.w3.org/TR/2001/REC-SVG-20010904/DTD/svg10.dtd">
<svg version="1.0" xmlns="http://www.w3.org/2000/svg"
 width="512.000000pt" height="512.000000pt" viewBox="0 0 512.000000 512.000000"
 preserveAspectRatio="xMidYMid meet">
<metadata>
Created by potrace 1.11, written by Peter Selinger 2001-2013
</metadata>
<g transform="translate(0.000000,512.000000) scale(0.100000,-0.100000)"
fill="#000000" stroke="none">
<path d="M0 3845 l0 -1275 315 0 315 0 2 318 3 317 317 3 318 2 2 318 3 317
325 0 325 0 3 -317 2 -318 318 -2 317 -3 3 -317 2 -318 318 -2 317 -3 3 -317
2 -318 310 0 310 0 2 318 3 317 317 3 318 2 2 318 3 317 323 3 322 2 0 955 0
955 -2560 0 -2560 0 0 -1275z"/>
<path d="M1288 2873 l-3 -318 -317 -3 -318 -2 -2 -318 -3 -317 -322 -3 -323
-2 0 -955 0 -955 2560 0 2560 0 0 1275 0 1275 -315 0 -315 0 -2 -317 -3 -318
-317 -3 -318 -2 -2 -318 -3 -317 -325 0 -325 0 -3 317 -2 318 -318 2 -317 3
-3 317 -2 318 -318 2 -317 3 -3 318 -2 317 -310 0 -310 0 -2 -317z"/>
</g>
</svg>
